<?xml version="1.0" encoding="utf-8"?>
<!-- Generator: Adobe Illustrator 19.1.0, SVG Export Plug-In . SVG Version: 6.00 Build 0)  -->
<svg version="1.1" xmlns="http://www.w3.org/2000/svg" xmlns:xlink="http://www.w3.org/1999/xlink" x="0px" y="0px"
	 viewBox="0 0 600 200" style="enable-background:new 0 0 600 200;" xml:space="preserve">
<style type="text/css">
	.st0{fill:#242424;}
	.st1{clip-path:url(#SVGID_2_);}
	.st2{fill:#2C2C2C;}
	.st3{opacity:0.75;clip-path:url(#SVGID_2_);fill:#424242;}
	.st4{fill:none;stroke:#484848;stroke-width:0.5489;stroke-miterlimit:10;}
	.st5{enable-background:new    ;}
	.st6{fill:#FFFFFF;}
	.st7{fill:#A30000;}
	.st8{fill:#CC0000;}
	.st9{clip-path:url(#SVGID_4_);}
	.st10{opacity:0.75;clip-path:url(#SVGID_4_);fill:#424242;}
	.st11{fill:none;stroke:#484848;stroke-width:0.2643;stroke-miterlimit:10;}
	.st12{opacity:0.75;clip-path:url(#SVGID_6_);fill:#424242;}
	.st13{clip-path:url(#SVGID_6_);}
	.st14{fill:none;stroke:#484848;stroke-width:0.3562;stroke-miterlimit:10;}
	.st15{fill:none;stroke:#636363;stroke-width:0.75;stroke-miterlimit:10;}
	.st16{fill:none;stroke:#636363;stroke-width:0.75;stroke-miterlimit:10;stroke-dasharray:3.0043,3.0043;}
	.st17{fill:none;stroke:#636363;stroke-width:0.5;stroke-miterlimit:10;stroke-dasharray:3,3;}
	.st18{fill:none;stroke:#636363;stroke-width:0.75;stroke-miterlimit:10;stroke-dasharray:3,3;}
	.st19{clip-path:url(#SVGID_8_);fill:#CC0000;}
	.st20{clip-path:url(#SVGID_8_);fill:#A30000;}
	.st21{clip-path:url(#SVGID_8_);}
	.st22{fill:none;stroke:#8B0000;stroke-width:0.5489;stroke-miterlimit:10;}
	.st23{clip-path:url(#SVGID_10_);fill:#CC0000;}
	.st24{clip-path:url(#SVGID_10_);fill:#A30000;}
	.st25{clip-path:url(#SVGID_10_);}
	.st26{fill:none;stroke:#8B0000;stroke-width:0.274;stroke-miterlimit:10;}
	.st27{clip-path:url(#SVGID_12_);fill:#CC0000;}
	.st28{clip-path:url(#SVGID_12_);fill:#A30000;}
	.st29{clip-path:url(#SVGID_12_);}
	.st30{clip-path:url(#SVGID_14_);fill:#CC0000;}
	.st31{clip-path:url(#SVGID_14_);fill:#A30000;}
	.st32{clip-path:url(#SVGID_14_);}
	.st33{fill:none;stroke:#8B0000;stroke-width:0.2524;stroke-miterlimit:10;}
	.st34{opacity:0.75;clip-path:url(#SVGID_16_);fill:#424242;}
	.st35{clip-path:url(#SVGID_16_);}
	.st36{fill:#231F20;}
	.st37{fill:#8BC86B;}
</style>
<g id="Layer_2">
	<g>
		<g class="st5">
			<path class="st36" d="M89.9,122.9c-0.9,1.9-2.1,3.5-3.5,4.8c-1.5,1.2-3.1,2.1-5,2.7c-1.9,0.6-3.8,0.9-5.7,0.9h-9.1v-30.6h9.6
				c2.2,0,4.2,0.3,6.1,0.8c1.8,0.5,3.5,1.4,4.8,2.6c1.4,1.2,2.4,2.8,3.2,4.7c0.8,1.9,1.2,4.3,1.2,7.1
				C91.3,118.7,90.8,121,89.9,122.9z M82.8,109c-1.4-1.6-3.8-2.3-7-2.3h-3.2v18.6h3c1.6,0,3-0.2,4.2-0.7c1.2-0.4,2.2-1.1,2.9-1.9
				c0.8-0.8,1.3-1.8,1.7-2.9c0.4-1.1,0.6-2.4,0.6-3.8C85,112.9,84.3,110.6,82.8,109z"/>
			<path class="st36" d="M97.4,131.3v-30.6h21.2v6h-15.1v5.2h8.8v6h-8.8v7.4h15.8v6H97.4z"/>
			<path class="st36" d="M140,131.3h-5.9l-10.9-30.6h6.8l5.8,17.7c0.1,0.4,0.3,0.9,0.4,1.4c0.1,0.5,0.3,0.9,0.4,1.4
				c0.1,0.5,0.2,0.9,0.4,1.3c0.1,0.4,0.2,0.7,0.2,1c0.1-0.6,0.3-1.3,0.6-2.3c0.2-0.9,0.5-1.8,0.8-2.8l5.6-17.7h6.7L140,131.3z"/>
			<path class="st36" d="M156.6,131.3v-30.6h21.2v6h-15.1v5.2h8.8v6h-8.8v7.4h15.8v6H156.6z"/>
			<path class="st36" d="M185,131.3v-30.6h6.1v24.6h15.3v6H185z"/>
			<path class="st36" d="M234.3,122.6c-0.7,2-1.6,3.6-2.8,5c-1.2,1.4-2.6,2.4-4.3,3.1c-1.7,0.7-3.5,1.1-5.5,1.1
				c-2,0-3.8-0.4-5.5-1.1c-1.6-0.7-3.1-1.7-4.2-3.1c-1.2-1.4-2.1-3-2.8-4.9c-0.7-1.9-1-4.1-1-6.6c0-2.5,0.3-4.7,1-6.6
				c0.7-2,1.6-3.6,2.8-5c1.2-1.4,2.6-2.4,4.3-3.1c1.7-0.7,3.5-1.1,5.5-1.1c2,0,3.8,0.4,5.4,1.1c1.6,0.7,3.1,1.7,4.2,3.1
				c1.2,1.4,2.1,3,2.8,4.9c0.7,1.9,1,4.1,1,6.6S234.9,120.6,234.3,122.6z M227,108.8c-1.3-1.7-3.1-2.5-5.2-2.5
				c-2.2,0-3.9,0.8-5.2,2.5c-1.3,1.7-1.9,4.1-1.9,7.2s0.7,5.5,2,7.2c1.3,1.7,3.1,2.5,5.2,2.5c2.2,0,3.9-0.8,5.2-2.5
				c1.3-1.7,1.9-4,1.9-7.2C229,112.9,228.3,110.5,227,108.8z"/>
			<path class="st36" d="M263.6,115c-0.6,1.3-1.3,2.3-2.3,3.1c-1,0.8-2.2,1.4-3.5,1.8c-1.4,0.4-2.8,0.6-4.4,0.6h-6.7v10.8h-6.1
				v-30.6h13.4c1.4,0,2.8,0.2,4.1,0.6c1.3,0.4,2.4,1,3.4,1.8c1,0.8,1.7,1.8,2.3,3c0.6,1.2,0.8,2.6,0.8,4.3
				C264.5,112.2,264.2,113.7,263.6,115z M257,107.6c-0.8-0.6-1.9-0.9-3.3-0.9h-7.1v7.8h7.2c2.9,0,4.4-1.3,4.4-3.9
				C258.2,109.2,257.8,108.2,257,107.6z"/>
			<path class="st36" d="M292.8,131.3v-11.2c0-0.4,0-0.9,0-1.6c0-0.6,0-1.3,0-2s0-1.3,0-1.9c0-0.6,0-1,0-1.3
				c-0.2,0.6-0.5,1.4-0.9,2.3c-0.4,1-0.8,1.9-1.2,2.8l-6.2,13.6l-6.2-13.6c-0.4-0.9-0.8-1.8-1.2-2.8c-0.4-1-0.7-1.7-0.9-2.3
				c0,0.3,0,0.7,0,1.3c0,0.6,0,1.2,0,1.9s0,1.3,0,2c0,0.6,0,1.2,0,1.6v11.2h-6v-30.6h5.9l6.4,13.9c0.2,0.4,0.4,0.9,0.6,1.4
				c0.2,0.5,0.4,1,0.6,1.4c0.2,0.5,0.4,0.9,0.5,1.3c0.2,0.4,0.3,0.7,0.4,1c0.2-0.6,0.5-1.4,0.9-2.3c0.4-1,0.8-1.9,1.2-2.8l6.2-13.9
				h6v30.6H292.8z"/>
			<path class="st36" d="M306.8,131.3v-30.6h21.2v6h-15.1v5.2h8.8v6h-8.8v7.4h15.8v6H306.8z"/>
			<path class="st36" d="M354.5,131.3l-11.2-16.7c-0.4-0.6-0.8-1.2-1.2-1.9c-0.4-0.7-0.7-1.2-0.9-1.6c0,0.3,0,0.7,0,1.3
				c0,0.6,0,1.2,0,1.9c0,0.6,0,1.3,0,1.9c0,0.6,0,1.2,0,1.6v13.5h-6.1v-30.6h5.9l10.8,16.2c0.4,0.6,0.8,1.2,1.2,1.9
				c0.4,0.7,0.7,1.2,0.9,1.6c0-0.3,0-0.7,0-1.3c0-0.6,0-1.2,0-1.8c0-0.7,0-1.3,0-2c0-0.6,0-1.2,0-1.6v-12.9h6.1v30.6H354.5z"/>
			<path class="st36" d="M380.7,106.7v24.6h-6.1v-24.6h-8.8v-6h23.6v6H380.7z"/>
			<path class="st36" d="M429.8,126c-0.5,1.2-1.2,2.2-2.2,3.1c-1,0.9-2.2,1.5-3.7,2c-1.5,0.5-3.3,0.7-5.4,0.7c-2.6,0-4.9-0.5-7-1.5
				s-3.7-2.3-4.9-4.1l4.4-3.9c1.1,1.3,2.3,2.1,3.6,2.7c1.3,0.5,2.7,0.8,4.2,0.8c1.8,0,3.2-0.3,4-0.8c0.9-0.5,1.3-1.4,1.3-2.5
				c0-0.5-0.1-0.9-0.3-1.3c-0.2-0.4-0.5-0.7-1-1c-0.5-0.3-1.2-0.6-2.1-0.9c-0.9-0.3-2.1-0.6-3.5-0.9c-1.4-0.3-2.7-0.7-3.9-1.1
				c-1.2-0.4-2.2-1-3-1.7c-0.8-0.7-1.5-1.5-2-2.5c-0.5-1-0.7-2.3-0.7-3.8c0-1.4,0.3-2.7,0.9-3.8c0.6-1.1,1.3-2,2.3-2.8
				c1-0.8,2.1-1.4,3.5-1.8c1.3-0.4,2.7-0.6,4.3-0.6c2.4,0,4.5,0.4,6.3,1.3c1.8,0.9,3.4,2,4.9,3.6l-4.4,4.3c-1-1-2-1.8-3.2-2.3
				c-1.1-0.5-2.4-0.8-3.8-0.8c-0.8,0-1.5,0.1-2.1,0.2c-0.6,0.2-1,0.4-1.4,0.6c-0.3,0.3-0.6,0.6-0.7,0.9c-0.1,0.3-0.2,0.7-0.2,1
				c0,0.5,0.1,0.9,0.3,1.2c0.2,0.3,0.5,0.6,1,0.9c0.5,0.3,1.1,0.5,1.9,0.7c0.8,0.2,1.8,0.5,3,0.8c1.2,0.3,2.4,0.6,3.6,1
				c1.2,0.4,2.3,0.9,3.3,1.6c1,0.7,1.8,1.6,2.4,2.7c0.6,1.1,0.9,2.4,0.9,4.1C430.5,123.5,430.3,124.8,429.8,126z"/>
			<path class="st36" d="M458.2,128.1c-2.2,2.4-5.2,3.6-9.1,3.6c-1.8,0-3.5-0.3-5-0.9c-1.5-0.6-2.8-1.5-3.9-2.7s-1.9-2.6-2.5-4.3
				c-0.6-1.7-0.9-3.7-0.9-5.9v-17.2h6.1v17.1c0,2.5,0.6,4.4,1.7,5.9c1.1,1.4,2.6,2.1,4.6,2.1s3.5-0.7,4.6-2.1
				c1.1-1.4,1.7-3.3,1.7-5.8v-17.2h6.1v17.1C461.5,122.2,460.4,125.7,458.2,128.1z"/>
			<path class="st36" d="M469.6,131.3v-30.6h6.1v30.6H469.6z"/>
			<path class="st36" d="M496.9,106.7v24.6h-6.1v-24.6h-8.8v-6h23.6v6H496.9z"/>
			<path class="st36" d="M511.6,131.3v-30.6h21.2v6h-15.1v5.2h8.8v6h-8.8v7.4h15.8v6H511.6z"/>
		</g>
		<g class="st5">
			<path class="st36" d="M78.1,90.4l-3.6-7.2h-4v7.2h-4V70.5h9.3c0.9,0,1.8,0.1,2.6,0.4c0.8,0.3,1.6,0.6,2.2,1.2
				c0.6,0.5,1.1,1.2,1.5,2c0.4,0.8,0.5,1.7,0.5,2.8c0,1.5-0.3,2.7-1,3.7c-0.6,1-1.6,1.7-2.9,2.2l3.8,7.7H78.1z M77.9,75
				c-0.5-0.4-1.2-0.6-2.1-0.6h-5.2v5.1h5.2c1.9,0,2.9-0.9,2.9-2.6C78.6,76,78.4,75.4,77.9,75z"/>
			<path class="st36" d="M88,90.4V70.5h13.8v3.9H92v3.4h5.7v3.9H92v4.8h10.3v3.9H88z"/>
			<path class="st36" d="M122.9,85c-0.6,1.3-1.3,2.3-2.3,3.1c-1,0.8-2,1.4-3.3,1.8c-1.2,0.4-2.5,0.6-3.7,0.6h-5.9V70.5h6.2
				c1.4,0,2.7,0.2,3.9,0.5c1.2,0.4,2.2,0.9,3.1,1.7s1.6,1.8,2.1,3.1c0.5,1.3,0.8,2.8,0.8,4.6C123.8,82.2,123.5,83.7,122.9,85z
				 M118.3,75.9c-0.9-1-2.5-1.5-4.6-1.5h-2.1v12.1h2c1,0,2-0.1,2.7-0.4c0.8-0.3,1.4-0.7,1.9-1.2c0.5-0.5,0.9-1.2,1.1-1.9
				c0.2-0.7,0.4-1.6,0.4-2.5C119.7,78.5,119.2,76.9,118.3,75.9z"/>
			<path class="st36" d="M149.8,90.4v-8.4h-8.2v8.4h-3.9V70.5h3.9v7.6h8.2v-7.6h4v19.9H149.8z"/>
			<path class="st36" d="M173.3,90.4l-1.6-4.4h-7.3l-1.6,4.4h-4.3l7.6-19.9h3.9l7.6,19.9H173.3z M169.1,78.6
				c-0.2-0.6-0.4-1.2-0.6-1.7c-0.2-0.5-0.3-1-0.4-1.4c-0.1,0.4-0.2,0.8-0.4,1.4c-0.2,0.5-0.4,1.1-0.6,1.7l-1.3,3.6h4.5L169.1,78.6z"
				/>
			<path class="st36" d="M188.2,74.4v16h-4v-16h-5.7v-3.9h15.4v3.9H188.2z"/>
		</g>
	</g>
</g>
<g id="Layer_1">
</g>
</svg>
