<?xml version="1.0" encoding="utf-8"?>
<!-- Generator: Adobe Illustrator 19.2.0, SVG Export Plug-In . SVG Version: 6.00 Build 0)  -->
<svg version="1.1" id="Layer_1" xmlns="http://www.w3.org/2000/svg" xmlns:xlink="http://www.w3.org/1999/xlink" x="0px" y="0px"
	 viewBox="0 0 773.6 253.7" style="enable-background:new 0 0 773.6 253.7;" xml:space="preserve">
<style type="text/css">
	.st0{fill:#A30000;}
	.st1{fill:#CC0000;}
</style>
<path d="M253.6,118.1l-6.1-12.3h-6.9v12.3h-6.8V83.8h15.9c1.6,0,3.1,0.2,4.6,0.7c1.4,0.4,2.7,1.1,3.8,2c1.1,0.9,1.9,2,2.5,3.4
	c0.6,1.4,0.9,2.9,0.9,4.8c0,2.6-0.5,4.7-1.6,6.3c-1.1,1.6-2.7,2.9-4.9,3.7l6.6,13.3H253.6z M253.2,91.5c-0.9-0.7-2.1-1-3.6-1h-9v8.8
	h9c3.3,0,4.9-1.5,4.9-4.4C254.5,93.3,254,92.2,253.2,91.5z"/>
<path d="M270.1,118.1V83.8h23.7v6.7h-16.9v5.9h9.8v6.7h-9.8v8.3h17.7v6.7H270.1z"/>
<path d="M329.6,108.7c-1,2.2-2.3,3.9-4,5.3c-1.6,1.4-3.5,2.4-5.6,3.1c-2.1,0.6-4.2,1-6.4,1h-10.2V83.8h10.7c2.4,0,4.7,0.3,6.8,0.9
	c2.1,0.6,3.9,1.6,5.4,3c1.5,1.4,2.7,3.1,3.6,5.3c0.9,2.2,1.3,4.8,1.3,7.9C331.1,103.9,330.6,106.5,329.6,108.7z M321.7,93.1
	c-1.6-1.7-4.2-2.6-7.9-2.6h-3.6v20.8h3.4c1.8,0,3.4-0.3,4.7-0.8c1.3-0.5,2.4-1.2,3.3-2.1c0.9-0.9,1.5-2,1.9-3.3
	c0.4-1.3,0.6-2.7,0.6-4.3C324.1,97.5,323.3,94.9,321.7,93.1z"/>
<path d="M376,118.1v-14.4h-14.1v14.4h-6.8V83.8h6.8V97H376V83.8h6.8v34.2H376z"/>
<path d="M415.9,118.1l-2.7-7.6h-12.5l-2.7,7.6h-7.3l13.1-34.2h6.7l13,34.2H415.9z M408.7,97.7c-0.4-1-0.7-2-1-2.9
	c-0.3-0.9-0.6-1.7-0.7-2.4c-0.2,0.7-0.4,1.4-0.7,2.4c-0.3,0.9-0.6,1.9-1,2.9l-2.2,6.2h7.8L408.7,97.7z"/>
<path d="M441,90.5v27.5h-6.8V90.5h-9.8v-6.7h26.5v6.7H441z"/>
<path d="M249.3,187.5h-15.5v-51.9H250c14.8,0,25.8,7,25.8,26C275.8,179.8,262.6,187.5,249.3,187.5z M249.6,145.7h-5.5v31.8h5.1
	c10.9,0,15.9-6.4,15.9-15.9C265.1,151,260.6,145.7,249.6,145.7z"/>
<path d="M286.2,187.5v-51.9h36.1v10.2h-25.7v9h14.9v10.1h-14.9v12.5h26.8v10.2H286.2z"/>
<path d="M358.5,187.5h-10.1L330,135.6h11.5l9.8,30c1,2.9,2,6.7,2.4,8.5c0.4-1.9,1.4-5.5,2.4-8.5l9.6-30H377L358.5,187.5z"/>
<path d="M386.6,187.5v-51.9h36.1v10.2H397v9h14.9v10.1H397v12.5h26.8v10.2H386.6z"/>
<path d="M434.8,187.5v-51.9h10.4v41.7h26v10.2H434.8z"/>
<path d="M498.6,188.4c-14.2,0-22.6-11-22.6-26.8c0-15.8,8.4-26.8,22.6-26.8c14.2,0,22.6,11,22.6,26.8
	C521.2,177.4,512.8,188.4,498.6,188.4z M498.6,145.1c-8.4,0-11.9,7.2-11.9,16.5c0,9.3,3.5,16.5,11.9,16.5c8.4,0,11.9-7.2,11.9-16.5
	C510.5,152.3,507,145.1,498.6,145.1z"/>
<path d="M553.6,169.1h-11.4v18.4h-10.4v-51.9h22.7c9.8,0,17.9,5.4,17.9,16.5C572.4,164.1,564.3,169.1,553.6,169.1z M554.1,145.7
	h-11.9v13.4h12.1c4.8,0,7.4-2.2,7.4-6.7C561.7,147.8,558.7,145.7,554.1,145.7z"/>
<path d="M582.2,187.5v-51.9h36.1v10.2h-25.7v9h14.9v10.1h-14.9v12.5h26.8v10.2H582.2z"/>
<path d="M660.6,187.5l-9.3-18.7h-10.5v18.7h-10.4v-51.9h24.2c9.8,0,17.9,5.4,17.9,16.5c0,7.8-3.3,12.7-9.9,15.3l9.9,20.2H660.6z
	 M654.4,145.7h-13.6v13.4h13.6c4.8,0,7.4-2.2,7.4-6.7C661.8,147.6,659,145.7,654.4,145.7z"/>
<path d="M701,188.4c-8.7,0-16.2-3.6-20.2-9.4l7.5-6.7c3.6,4.2,8.3,5.9,13.3,5.9c6.2,0,9.1-1.7,9.1-5.6c0-3.3-1.8-4.8-11.6-7
	c-9.6-2.2-16.3-5.3-16.3-15.5c0-9.4,8.3-15.2,18.6-15.2c8.1,0,14,3,18.9,8.2l-7.5,7.3c-3.3-3.4-7-5.3-11.8-5.3
	c-5.6,0-7.4,2.4-7.4,4.7c0,3.3,2.2,4.3,10.5,6.2c8.2,1.9,17.4,4.7,17.4,16C721.4,181.7,715.2,188.4,701,188.4z"/>
<polygon class="st0" points="171.3,98.1 155.3,114 168.6,127.3 200.5,127.3 "/>
<polygon class="st0" points="126.3,169.6 113,156.4 97,172.3 126.3,201.5 126.3,201.5 126.3,169.6 "/>
<polygon class="st1" points="168.6,127.3 126.3,169.6 126.3,201.5 200.5,127.3 "/>
<polygon class="st0" points="81.3,156.5 97.2,140.6 84,127.3 52,127.3 "/>
<polygon class="st0" points="126.3,85 139.5,98.3 155.5,82.3 126.3,53.1 126.3,53.1 126.3,85 "/>
<polygon class="st1" points="84,127.3 126.3,85 126.3,53.1 52,127.3 "/>
</svg>
