<?xml version="1.0" encoding="utf-8"?>
<!-- Generator: Adobe Illustrator 19.1.0, SVG Export Plug-In . SVG Version: 6.00 Build 0)  -->
<svg version="1.1" id="Layer_1" xmlns="http://www.w3.org/2000/svg" xmlns:xlink="http://www.w3.org/1999/xlink" x="0px" y="0px"
	 viewBox="0 0 256.2 12" style="enable-background:new 0 0 256.2 12;" xml:space="preserve">
<style type="text/css">
	.st0{fill:#212121;}
</style>
<g>
	<g>
		<g>
			<path class="st0" d="M6.2,11.7L4.4,7.9H3.1v3.9H0V0.3h5.1c0.7,0,1.3,0.1,1.8,0.2c0.6,0.1,1,0.3,1.4,0.6C8.7,1.4,9,1.8,9.2,2.3
				C9.5,2.8,9.6,3.4,9.6,4c0,0.9-0.2,1.6-0.6,2.1s-0.9,1-1.5,1.2l2.3,4.4H6.2z M6.1,3.2C5.9,3,5.5,2.9,5,2.9H3.1v2.5H5
				c0.5,0,0.9-0.1,1.1-0.3c0.2-0.2,0.3-0.5,0.3-0.9C6.4,3.7,6.3,3.5,6.1,3.2z"/>
		</g>
		<g>
			<path class="st0" d="M11.7,11.7V0.3h8.8V3h-5.6v1.5h3.4v2.6h-3.4v2h5.7v2.7H11.7z"/>
		</g>
		<g>
			<path class="st0" d="M32.1,8.7c-0.3,0.7-0.7,1.3-1.2,1.8c-0.5,0.5-1.2,0.8-1.9,1c-0.8,0.2-1.7,0.3-2.7,0.3h-3.7V0.3h4
				c0.9,0,1.7,0.1,2.4,0.3c0.7,0.2,1.4,0.5,1.9,0.9c0.5,0.4,0.9,1,1.2,1.7C32.3,4,32.4,4.9,32.4,6C32.4,7,32.3,7.9,32.1,8.7z
				 M29.1,4.6C29,4.3,28.8,4,28.6,3.7c-0.2-0.2-0.5-0.4-0.8-0.5C27.5,3.1,27,3,26.6,3h-0.8v6h0.7C27,9,27.4,9,27.7,8.9
				c0.3-0.1,0.6-0.3,0.9-0.5c0.2-0.2,0.4-0.5,0.5-0.9C29.2,7,29.2,6.6,29.2,6C29.2,5.5,29.2,5,29.1,4.6z"/>
		</g>
		<g>
			<path class="st0" d="M45.9,11.7V7.2h-3.6v4.5h-3.2V0.3h3.2v4.2h3.6V0.3h3.2v11.4H45.9z"/>
		</g>
		<g>
			<path class="st0" d="M58.8,11.7l-0.6-2h-3.4l-0.6,2h-3.4l4.1-11.4h3.2l4.1,11.4H58.8z M57.2,6.5c-0.1-0.4-0.2-0.7-0.3-1
				c-0.1-0.3-0.1-0.5-0.2-0.7c-0.1-0.2-0.1-0.4-0.2-0.6c0-0.2-0.1-0.4-0.1-0.6c0,0.2-0.1,0.4-0.1,0.6c0,0.2-0.1,0.4-0.2,0.6
				C56.1,5,56.1,5.2,56,5.5c-0.1,0.3-0.2,0.6-0.3,0.9l-0.2,0.8h1.9L57.2,6.5z"/>
		</g>
		<g>
			<path class="st0" d="M68.2,3.1v8.7H65V3.1h-3.2V0.3h9.6v2.8H68.2z"/>
		</g>
	</g>
	<g>
		<path class="st0" d="M75.1,1.9C75.1,2,75,2.2,74.9,2.3c-0.1,0.1-0.2,0.2-0.4,0.2c-0.1,0.1-0.3,0.1-0.5,0.1c-0.2,0-0.3,0-0.5-0.1
			c-0.1-0.1-0.3-0.1-0.4-0.2C73.2,2.2,73.1,2,73,1.9c-0.1-0.1-0.1-0.3-0.1-0.5c0-0.2,0-0.3,0.1-0.5c0.1-0.1,0.1-0.3,0.2-0.4
			c0.1-0.1,0.2-0.2,0.4-0.2c0.1-0.1,0.3-0.1,0.5-0.1c0.2,0,0.3,0,0.5,0.1c0.1,0.1,0.3,0.1,0.4,0.2C75,0.7,75.1,0.9,75.1,1
			c0.1,0.1,0.1,0.3,0.1,0.5C75.2,1.6,75.2,1.8,75.1,1.9z M75,1.1c0-0.1-0.1-0.2-0.2-0.3c-0.1-0.1-0.2-0.2-0.3-0.2
			c-0.1,0-0.2-0.1-0.4-0.1c-0.1,0-0.3,0-0.4,0.1c-0.1,0-0.2,0.1-0.3,0.2c-0.1,0.1-0.2,0.2-0.2,0.3c0,0.1-0.1,0.2-0.1,0.4
			c0,0.1,0,0.3,0.1,0.4c0,0.1,0.1,0.2,0.2,0.3c0.1,0.1,0.2,0.2,0.3,0.2c0.1,0,0.2,0.1,0.4,0.1c0.1,0,0.3,0,0.4-0.1
			c0.1,0,0.2-0.1,0.3-0.2C74.9,2,74.9,1.9,75,1.8C75,1.7,75,1.6,75,1.4C75,1.3,75,1.2,75,1.1z M74.5,1.4c0,0.1-0.1,0.1-0.2,0.1
			l0.3,0.5h-0.2l-0.2-0.5h-0.2v0.5h-0.2V0.8h0.5c0.1,0,0.1,0,0.2,0c0,0,0.1,0,0.1,0.1c0,0,0.1,0.1,0.1,0.1c0,0,0,0.1,0,0.2
			C74.6,1.3,74.6,1.4,74.5,1.4z M74.3,1.1c0,0-0.1,0-0.1,0h-0.3v0.4h0.3c0.1,0,0.1,0,0.1,0c0,0,0.1-0.1,0.1-0.1
			C74.4,1.1,74.4,1.1,74.3,1.1z"/>
	</g>
	<g>
		<path class="st0" d="M88,8.6c-0.3,0.7-0.8,1.3-1.3,1.8c-0.6,0.5-1.2,0.8-1.9,1c-0.7,0.2-1.4,0.3-2.2,0.3h-3.4V0.2h3.6
			c0.8,0,1.6,0.1,2.3,0.3s1.3,0.5,1.8,1c0.5,0.5,0.9,1.1,1.2,1.8C88.4,4,88.5,4.9,88.5,6C88.5,7,88.4,7.8,88,8.6z M85.3,3.3
			c-0.5-0.6-1.4-0.9-2.7-0.9h-1.2v7h1.1c0.6,0,1.1-0.1,1.6-0.3c0.4-0.2,0.8-0.4,1.1-0.7s0.5-0.7,0.6-1.1C86.1,7,86.2,6.5,86.2,6
			C86.2,4.8,85.9,3.9,85.3,3.3z"/>
		<path class="st0" d="M90.8,11.7V0.2h8v2.3h-5.7v2h3.3v2.3h-3.3v2.8h6v2.3H90.8z"/>
		<path class="st0" d="M106.9,11.7h-2.2l-4.1-11.6h2.6l2.2,6.7c0.1,0.2,0.1,0.3,0.2,0.5c0.1,0.2,0.1,0.3,0.2,0.5
			c0,0.2,0.1,0.3,0.1,0.5c0,0.2,0.1,0.3,0.1,0.4c0.1-0.2,0.1-0.5,0.2-0.9c0.1-0.4,0.2-0.7,0.3-1l2.1-6.7h2.5L106.9,11.7z"/>
		<path class="st0" d="M113.2,11.7V0.2h8v2.3h-5.7v2h3.3v2.3h-3.3v2.8h6v2.3H113.2z"/>
		<path class="st0" d="M123.9,11.7V0.2h2.3v9.3h5.8v2.3H123.9z"/>
		<path class="st0" d="M142.9,8.5c-0.2,0.7-0.6,1.4-1,1.9c-0.5,0.5-1,0.9-1.6,1.2c-0.6,0.3-1.3,0.4-2.1,0.4c-0.8,0-1.4-0.1-2.1-0.4
			c-0.6-0.3-1.2-0.7-1.6-1.2c-0.4-0.5-0.8-1.1-1-1.9c-0.2-0.7-0.4-1.6-0.4-2.5s0.1-1.8,0.4-2.5c0.2-0.7,0.6-1.4,1-1.9s1-0.9,1.6-1.2
			c0.6-0.3,1.3-0.4,2.1-0.4c0.7,0,1.4,0.1,2.1,0.4c0.6,0.3,1.2,0.7,1.6,1.2c0.4,0.5,0.8,1.1,1,1.9c0.2,0.7,0.4,1.6,0.4,2.5
			C143.2,6.9,143.1,7.7,142.9,8.5z M140.1,3.3c-0.5-0.6-1.2-1-2-1c-0.8,0-1.5,0.3-2,0.9c-0.5,0.6-0.7,1.5-0.7,2.7
			c0,1.2,0.3,2.1,0.8,2.7c0.5,0.6,1.2,1,2,1c0.8,0,1.5-0.3,2-0.9c0.5-0.6,0.7-1.5,0.7-2.7C140.9,4.8,140.6,3.9,140.1,3.3z"/>
		<path class="st0" d="M154.3,5.6c-0.2,0.5-0.5,0.9-0.9,1.2c-0.4,0.3-0.8,0.5-1.3,0.7s-1.1,0.2-1.7,0.2h-2.5v4.1h-2.3V0.2h5.1
			c0.5,0,1.1,0.1,1.5,0.2c0.5,0.1,0.9,0.4,1.3,0.7c0.4,0.3,0.6,0.7,0.9,1.1c0.2,0.5,0.3,1,0.3,1.6C154.6,4.5,154.5,5.1,154.3,5.6z
			 M151.8,2.8c-0.3-0.2-0.7-0.4-1.2-0.4h-2.7v2.9h2.7c1.1,0,1.7-0.5,1.7-1.5C152.2,3.4,152.1,3,151.8,2.8z"/>
		<path class="st0" d="M165.3,11.7V7.5c0-0.2,0-0.4,0-0.6c0-0.2,0-0.5,0-0.7c0-0.3,0-0.5,0-0.7c0-0.2,0-0.4,0-0.5
			c-0.1,0.2-0.2,0.5-0.4,0.9c-0.1,0.4-0.3,0.7-0.5,1l-2.4,5.1l-2.3-5.1c-0.2-0.3-0.3-0.7-0.5-1c-0.1-0.4-0.3-0.7-0.4-0.9
			c0,0.1,0,0.3,0,0.5c0,0.2,0,0.5,0,0.7c0,0.3,0,0.5,0,0.7c0,0.2,0,0.4,0,0.6v4.2h-2.3V0.2h2.2l2.4,5.2c0.1,0.2,0.2,0.3,0.2,0.5
			c0.1,0.2,0.2,0.4,0.2,0.5c0.1,0.2,0.1,0.3,0.2,0.5c0.1,0.2,0.1,0.3,0.1,0.4c0.1-0.2,0.2-0.5,0.3-0.9c0.1-0.4,0.3-0.7,0.4-1
			l2.3-5.2h2.3v11.6H165.3z"/>
		<path class="st0" d="M170.6,11.7V0.2h8v2.3h-5.7v2h3.3v2.3h-3.3v2.8h6v2.3H170.6z"/>
		<path class="st0" d="M188.6,11.7l-4.2-6.3c-0.1-0.2-0.3-0.5-0.5-0.7c-0.2-0.2-0.3-0.4-0.4-0.6c0,0.1,0,0.3,0,0.5
			c0,0.2,0,0.4,0,0.7c0,0.2,0,0.5,0,0.7c0,0.2,0,0.4,0,0.6v5.1h-2.3V0.2h2.2l4.1,6.1c0.1,0.2,0.3,0.5,0.5,0.7
			c0.2,0.2,0.3,0.4,0.4,0.6c0-0.1,0-0.3,0-0.5c0-0.2,0-0.4,0-0.7c0-0.3,0-0.5,0-0.7c0-0.2,0-0.4,0-0.6V0.2h2.3v11.6H188.6z"/>
		<path class="st0" d="M198.5,2.4v9.3h-2.3V2.4h-3.3V0.2h8.9v2.3H198.5z"/>
		<path class="st0" d="M217.1,9.7c-0.2,0.5-0.5,0.8-0.8,1.2c-0.4,0.3-0.8,0.6-1.4,0.8c-0.6,0.2-1.2,0.3-2,0.3c-1,0-1.8-0.2-2.6-0.6
			c-0.8-0.4-1.4-0.9-1.8-1.5l1.7-1.5c0.4,0.5,0.9,0.8,1.4,1c0.5,0.2,1,0.3,1.6,0.3c0.7,0,1.2-0.1,1.5-0.3c0.3-0.2,0.5-0.5,0.5-1
			c0-0.2,0-0.3-0.1-0.5c-0.1-0.1-0.2-0.3-0.4-0.4c-0.2-0.1-0.4-0.2-0.8-0.3c-0.3-0.1-0.8-0.2-1.3-0.3c-0.5-0.1-1-0.3-1.5-0.4
			c-0.4-0.2-0.8-0.4-1.1-0.6c-0.3-0.3-0.6-0.6-0.7-1c-0.2-0.4-0.3-0.9-0.3-1.4c0-0.5,0.1-1,0.3-1.4c0.2-0.4,0.5-0.8,0.9-1.1
			c0.4-0.3,0.8-0.5,1.3-0.7c0.5-0.2,1-0.2,1.6-0.2c0.9,0,1.7,0.2,2.4,0.5c0.7,0.3,1.3,0.8,1.8,1.3l-1.7,1.6
			c-0.4-0.4-0.8-0.7-1.2-0.9c-0.4-0.2-0.9-0.3-1.4-0.3c-0.3,0-0.6,0-0.8,0.1c-0.2,0.1-0.4,0.1-0.5,0.2c-0.1,0.1-0.2,0.2-0.3,0.3
			c-0.1,0.1-0.1,0.2-0.1,0.4c0,0.2,0,0.3,0.1,0.5s0.2,0.2,0.4,0.3c0.2,0.1,0.4,0.2,0.7,0.3c0.3,0.1,0.7,0.2,1.1,0.3
			c0.5,0.1,0.9,0.2,1.4,0.4c0.5,0.1,0.9,0.4,1.2,0.6c0.4,0.3,0.7,0.6,0.9,1c0.2,0.4,0.3,0.9,0.3,1.5C217.3,8.8,217.2,9.3,217.1,9.7z
			"/>
		<path class="st0" d="M227.8,10.5c-0.8,0.9-2,1.4-3.4,1.4c-0.7,0-1.3-0.1-1.9-0.3c-0.6-0.2-1.1-0.6-1.5-1c-0.4-0.4-0.7-1-0.9-1.6
			s-0.3-1.4-0.3-2.2V0.2h2.3v6.5c0,0.9,0.2,1.7,0.6,2.2c0.4,0.5,1,0.8,1.7,0.8s1.3-0.3,1.7-0.8c0.4-0.5,0.6-1.3,0.6-2.2V0.2h2.3v6.5
			C229,8.3,228.6,9.6,227.8,10.5z"/>
		<path class="st0" d="M232.1,11.7V0.2h2.3v11.6H232.1z"/>
		<path class="st0" d="M242.4,2.4v9.3h-2.3V2.4h-3.3V0.2h8.9v2.3H242.4z"/>
		<path class="st0" d="M248,11.7V0.2h8v2.3h-5.7v2h3.3v2.3h-3.3v2.8h6v2.3H248z"/>
	</g>
</g>
</svg>
