<svg id="Layer_1" data-name="Layer 1" xmlns="http://www.w3.org/2000/svg" viewBox="0 0 421.56 12.55"><defs><style>.cls-1{fill:#333;}</style></defs><title>RHDSP</title><path class="cls-1" d="M92.39,9.53a4.2,4.2,0,0,1-.94,1.6,4.09,4.09,0,0,1-1.58,1,6.37,6.37,0,0,1-2.22.35,6.55,6.55,0,0,1-2.08-.29,4.34,4.34,0,0,1-1.5-.83A4.39,4.39,0,0,1,83,10a7.43,7.43,0,0,1-.63-1.72l3.26-.86A4.55,4.55,0,0,0,86.41,9a1.57,1.57,0,0,0,1.29.52A1.43,1.43,0,0,0,88.9,9a2.19,2.19,0,0,0,.39-1.38V0.28h3.4V7.41A6.72,6.72,0,0,1,92.39,9.53Z"/><path class="cls-1" d="M104.25,11.29a4.94,4.94,0,0,1-3.4,1H95.08v-12h5.81a5.11,5.11,0,0,1,3.22.81,2.83,2.83,0,0,1,1,2.32,2.32,2.32,0,0,1-.42,1.5,3.61,3.61,0,0,1-1,.86,2.81,2.81,0,0,1,1.27,1,2.88,2.88,0,0,1,.45,1.67A3.68,3.68,0,0,1,104.25,11.29Zm-2.64-8.11a1,1,0,0,0-.82-0.28H98.28V4.81h2.51a1.06,1.06,0,0,0,.82-0.26,1,1,0,0,0,.23-0.69A1,1,0,0,0,101.61,3.18Zm0.2,4.46a1.18,1.18,0,0,0-.89-0.31H98.28V9.67h2.63a1.15,1.15,0,0,0,.91-0.34,1.25,1.25,0,0,0,.29-0.85A1.18,1.18,0,0,0,101.81,7.64Z"/><path class="cls-1" d="M117.49,8.92a5.48,5.48,0,0,1-1.15,1.95,4.86,4.86,0,0,1-1.77,1.2,6,6,0,0,1-2.25.41,6.07,6.07,0,0,1-2.24-.4,4.8,4.8,0,0,1-1.76-1.19A5.32,5.32,0,0,1,107.18,9a8,8,0,0,1-.4-2.65,7.87,7.87,0,0,1,.41-2.65,5.49,5.49,0,0,1,1.15-1.95A4.87,4.87,0,0,1,110.11.5a5.94,5.94,0,0,1,2.25-.41,6.08,6.08,0,0,1,2.24.4,4.73,4.73,0,0,1,1.75,1.18,5.44,5.44,0,0,1,1.14,1.94,7.89,7.89,0,0,1,.41,2.65A7.89,7.89,0,0,1,117.49,8.92Zm-3.6-5.09A1.78,1.78,0,0,0,112.32,3a1.74,1.74,0,0,0-1.56.82,4.51,4.51,0,0,0-.54,2.46,4.5,4.5,0,0,0,.56,2.47,1.78,1.78,0,0,0,1.57.84,1.74,1.74,0,0,0,1.55-.82,4.51,4.51,0,0,0,.54-2.46A4.5,4.5,0,0,0,113.89,3.83Z"/><path class="cls-1" d="M128.78,10.38a3.19,3.19,0,0,1-1,1.2,4.62,4.62,0,0,1-1.57.69,8.3,8.3,0,0,1-2,.22,9.23,9.23,0,0,1-2.79-.42,9.27,9.27,0,0,1-2.28-1l1.61-2.61a5.78,5.78,0,0,0,.76.44,8.58,8.58,0,0,0,.91.39,7.06,7.06,0,0,0,1,.28,4.32,4.32,0,0,0,.89.1,3,3,0,0,0,1.23-.17,0.62,0.62,0,0,0,.34-0.6,0.54,0.54,0,0,0-.1-0.31,1,1,0,0,0-.33-0.27A3.65,3.65,0,0,0,124.77,8c-0.26-.09-0.59-0.17-1-0.27a17.31,17.31,0,0,1-1.89-.55,4.5,4.5,0,0,1-1.34-.73,2.75,2.75,0,0,1-.8-1.06,3.87,3.87,0,0,1-.27-1.53,3.52,3.52,0,0,1,.34-1.54,3.35,3.35,0,0,1,1-1.2,4.49,4.49,0,0,1,1.49-.77,6.52,6.52,0,0,1,2-.28,9,9,0,0,1,2.69.36,7.69,7.69,0,0,1,2.1,1L127.4,4.09a7.22,7.22,0,0,0-1.61-.84A5.09,5.09,0,0,0,124.05,3a1.65,1.65,0,0,0-1,.21,0.67,0.67,0,0,0-.24.53,0.49,0.49,0,0,0,.09.3,0.85,0.85,0,0,0,.32.24,3.66,3.66,0,0,0,.6.22c0.25,0.07.57,0.16,1,.25a15.23,15.23,0,0,1,2,.6,4.87,4.87,0,0,1,1.36.77,2.76,2.76,0,0,1,.79,1.06,3.79,3.79,0,0,1,.26,1.46A3.9,3.9,0,0,1,128.78,10.38Z"/><path class="cls-1" d="M140.19,10.38a3.2,3.2,0,0,1-1,1.2,4.63,4.63,0,0,1-1.57.69,8.28,8.28,0,0,1-2,.22,9.25,9.25,0,0,1-2.79-.42,9.31,9.31,0,0,1-2.28-1l1.62-2.61a5.79,5.79,0,0,0,.76.44,8.55,8.55,0,0,0,.91.39,6.93,6.93,0,0,0,1,.28,4.26,4.26,0,0,0,.89.1,3,3,0,0,0,1.23-.17,0.61,0.61,0,0,0,.33-0.6,0.53,0.53,0,0,0-.09-0.31,1,1,0,0,0-.33-0.27A3.5,3.5,0,0,0,136.18,8c-0.26-.09-0.6-0.17-1-0.27a17.24,17.24,0,0,1-1.89-.55A4.55,4.55,0,0,1,132,6.47a2.79,2.79,0,0,1-.8-1.06,3.82,3.82,0,0,1-.27-1.53,3.58,3.58,0,0,1,.33-1.54,3.4,3.4,0,0,1,1-1.2,4.45,4.45,0,0,1,1.49-.77,6.5,6.5,0,0,1,2-.28,8.91,8.91,0,0,1,2.69.36,7.66,7.66,0,0,1,2.11,1l-1.61,2.61a7.17,7.17,0,0,0-1.62-.84A5.08,5.08,0,0,0,135.46,3a1.65,1.65,0,0,0-1,.21,0.66,0.66,0,0,0-.24.53,0.5,0.5,0,0,0,.1.3,0.83,0.83,0,0,0,.32.24,3.75,3.75,0,0,0,.6.22c0.25,0.07.57,0.16,1,.25a15.45,15.45,0,0,1,2,.6,4.9,4.9,0,0,1,1.36.77,2.78,2.78,0,0,1,.79,1.06,3.81,3.81,0,0,1,.26,1.46A3.92,3.92,0,0,1,140.19,10.38Z"/><path class="cls-1" d="M6.53,12.26l-2-4H3.24v4H0V0.31H5.34a7.91,7.91,0,0,1,1.9.21,4,4,0,0,1,1.48.67,3,3,0,0,1,.95,1.2A4.38,4.38,0,0,1,10,4.21a3.84,3.84,0,0,1-.58,2.2A3.67,3.67,0,0,1,7.85,7.7l2.39,4.56H6.53ZM6.37,3.37A1.48,1.48,0,0,0,5.25,3h-2V5.62h2a1.62,1.62,0,0,0,1.16-.34,1.33,1.33,0,0,0,.34-1A1.29,1.29,0,0,0,6.37,3.37Z"/><path class="cls-1" d="M12.22,12.26V0.31h9.15V3.1H15.5V4.7H19V7.43H15.5v2h6v2.78H12.22Z"/><path class="cls-1" d="M33.52,9.06a4.28,4.28,0,0,1-1.23,1.86,4.93,4.93,0,0,1-2,1,11,11,0,0,1-2.79.32H23.6V0.31h4.18A10.37,10.37,0,0,1,30.33.6a4.62,4.62,0,0,1,1.93,1,4.49,4.49,0,0,1,1.23,1.82,7.86,7.86,0,0,1,.44,2.81A8.57,8.57,0,0,1,33.52,9.06ZM30.39,4.86a2.3,2.3,0,0,0-.47-1,1.92,1.92,0,0,0-.85-0.55,4,4,0,0,0-1.3-.18H26.95V9.43h0.72A4.73,4.73,0,0,0,29,9.27a2,2,0,0,0,.9-0.53,2.13,2.13,0,0,0,.5-1,6.31,6.31,0,0,0,.15-1.49A6.07,6.07,0,0,0,30.39,4.86Z"/><path class="cls-1" d="M48,12.26V7.55H44.25v4.71H40.88V0.31h3.38V4.67H48V0.31h3.38V12.26H48Z"/><path class="cls-1" d="M61.49,12.26l-0.65-2.1H57.26l-0.65,2.1H53.06L57.4,0.31h3.34l4.34,11.95H61.49ZM59.82,6.75c-0.1-.39-0.19-0.72-0.27-1L59.33,5c-0.06-.23-0.12-0.43-0.16-0.62S59.09,4,59.05,3.76c0,0.21-.07.4-0.12,0.6s-0.1.4-.16,0.63l-0.21.77-0.27,1-0.22.79h2Z"/><path class="cls-1" d="M71.32,3.2v9.06H68V3.2H64.67V0.31h10V3.2H71.32Z"/><path class="cls-1" d="M78.56,2a1.13,1.13,0,0,1-.25.38,1.14,1.14,0,0,1-.38.25,1.22,1.22,0,0,1-.47.09A1.19,1.19,0,0,1,77,2.61a1.15,1.15,0,0,1-.38-0.25A1.13,1.13,0,0,1,76.35,2a1.21,1.21,0,0,1-.09-0.47A1.2,1.2,0,0,1,76.35,1,1.15,1.15,0,0,1,76.6.65,1.16,1.16,0,0,1,77,.4,1.21,1.21,0,0,1,77.46.31a1.23,1.23,0,0,1,.47.09,1.18,1.18,0,0,1,.63.63,1.23,1.23,0,0,1,.09.47A1.23,1.23,0,0,1,78.56,2Zm-0.18-.87A1,1,0,0,0,77.85.58a1.1,1.1,0,0,0-.79,0,1,1,0,0,0-.32.21,1.06,1.06,0,0,0-.21.32,1,1,0,0,0-.08.4,1,1,0,0,0,.08.4,1.05,1.05,0,0,0,.21.32,1,1,0,0,0,.32.21,1.1,1.1,0,0,0,.79,0,1,1,0,0,0,.32-0.21,1,1,0,0,0,.21-0.32A1.07,1.07,0,0,0,78.38,1.11Zm-0.46.37a0.37,0.37,0,0,1-.2.13L78,2.14H77.73l-0.25-.51H77.22V2.14H77V0.83h0.57l0.16,0a0.35,0.35,0,0,1,.13.07A0.33,0.33,0,0,1,78,1a0.44,0.44,0,0,1,0,.18A0.38,0.38,0,0,1,77.92,1.48Zm-0.2-.38a0.23,0.23,0,0,0-.15,0H77.22V1.42h0.35a0.25,0.25,0,0,0,.15,0,0.17,0.17,0,0,0,.06-0.14A0.17,0.17,0,0,0,77.72,1.09Z"/><path class="cls-1" d="M145.1,2a1.15,1.15,0,0,1-.26.38,1.12,1.12,0,0,1-.38.25,1.22,1.22,0,0,1-.47.09,1.2,1.2,0,0,1-.47-0.09A1.16,1.16,0,0,1,142.88,2a1.21,1.21,0,0,1-.09-0.47A1.2,1.2,0,0,1,142.88,1,1.16,1.16,0,0,1,143.52.4,1.22,1.22,0,0,1,144,.31a1.24,1.24,0,0,1,.47.09,1.14,1.14,0,0,1,.38.25,1.17,1.17,0,0,1,.26.38,1.24,1.24,0,0,1,.09.47A1.24,1.24,0,0,1,145.1,2Zm-0.18-.87a1,1,0,0,0-.21-0.32,1,1,0,0,0-.32-0.21,1.1,1.1,0,0,0-.79,0,1,1,0,0,0-.32.21,1,1,0,0,0-.21.32,1,1,0,0,0-.07.4,1,1,0,0,0,.07.4,1,1,0,0,0,.21.32,1,1,0,0,0,.32.21,1.1,1.1,0,0,0,.79,0,1,1,0,0,0,.53-0.53,1,1,0,0,0,.08-0.4A1,1,0,0,0,144.92,1.11Zm-0.46.37a0.36,0.36,0,0,1-.2.13l0.27,0.53h-0.26L144,1.63h-0.25V2.14h-0.22V0.83h0.57l0.17,0a0.36,0.36,0,0,1,.13.07,0.35,0.35,0,0,1,.09.12,0.44,0.44,0,0,1,0,.18A0.38,0.38,0,0,1,144.46,1.48Zm-0.2-.38a0.24,0.24,0,0,0-.15,0h-0.35V1.42h0.35a0.26,0.26,0,0,0,.15,0,0.17,0.17,0,0,0,.06-0.14A0.16,0.16,0,0,0,144.25,1.09Z"/><path class="cls-1" d="M160.17,9a5.3,5.3,0,0,1-1.4,1.88,5.63,5.63,0,0,1-2,1.08,7.61,7.61,0,0,1-2.27.35h-3.61V0.19h3.78a8.52,8.52,0,0,1,2.39.32,4.78,4.78,0,0,1,1.9,1,4.93,4.93,0,0,1,1.26,1.87,7.6,7.6,0,0,1,.46,2.8A6.53,6.53,0,0,1,160.17,9Zm-2.81-5.49a3.62,3.62,0,0,0-2.77-.92h-1.28V9.91h1.2a4.65,4.65,0,0,0,1.65-.27,3,3,0,0,0,1.15-.75A3.1,3.1,0,0,0,158,7.73a4.76,4.76,0,0,0,.23-1.5A3.94,3.94,0,0,0,157.36,3.47Z"/><path class="cls-1" d="M163.11,12.27V0.19h8.37V2.55h-6V4.63H169V7h-3.47V9.91h6.23v2.36h-8.63Z"/><path class="cls-1" d="M179.94,12.27h-2.35L173.3,0.19H176l2.28,7,0.17,0.54,0.16,0.54q0.08,0.27.14,0.51l0.09,0.4,0.23-.9q0.15-.55.32-1.09l2.23-7h2.64Z"/><path class="cls-1" d="M186.48,12.27V0.19h8.37V2.55h-6V4.63h3.47V7h-3.47V9.91h6.23v2.36h-8.63Z"/><path class="cls-1" d="M197.7,12.27V0.19h2.4V9.91h6.06v2.36H197.7Z"/><path class="cls-1" d="M217.52,8.84a5.67,5.67,0,0,1-1.1,2A4.79,4.79,0,0,1,214.73,12a5.31,5.31,0,0,1-2.16.43,5.4,5.4,0,0,1-2.17-.42,4.65,4.65,0,0,1-1.67-1.23,5.7,5.7,0,0,1-1.09-1.95,8.15,8.15,0,0,1-.39-2.62,8.23,8.23,0,0,1,.39-2.62,5.64,5.64,0,0,1,1.1-2A4.81,4.81,0,0,1,210.44.43a5.69,5.69,0,0,1,4.32,0,4.62,4.62,0,0,1,1.67,1.22,5.73,5.73,0,0,1,1.09,2,8.11,8.11,0,0,1,.39,2.61A8.19,8.19,0,0,1,217.52,8.84ZM214.63,3.4a2.52,2.52,0,0,0-2.07-1,2.46,2.46,0,0,0-2,1,4.52,4.52,0,0,0-.77,2.83,4.49,4.49,0,0,0,.79,2.85,2.52,2.52,0,0,0,2.07,1,2.46,2.46,0,0,0,2-1,4.52,4.52,0,0,0,.77-2.83A4.49,4.49,0,0,0,214.63,3.4Z"/><path class="cls-1" d="M229.45,5.83a3.27,3.27,0,0,1-.92,1.23,3.77,3.77,0,0,1-1.39.71,6.5,6.5,0,0,1-1.74.22h-2.66v4.28h-2.4V0.19h5.28a5.45,5.45,0,0,1,1.61.23,3.71,3.71,0,0,1,1.33.72,3.4,3.4,0,0,1,.9,1.2A4,4,0,0,1,229.78,4,4.49,4.49,0,0,1,229.45,5.83Zm-2.63-2.9a2.07,2.07,0,0,0-1.29-.37h-2.79V5.63h2.82a1.46,1.46,0,0,0,1.73-1.55A1.36,1.36,0,0,0,226.82,2.92Z"/><path class="cls-1" d="M232.08,12.27V0.19h8.37V2.55h-6V4.63h3.47V7h-3.47V9.91h6.23v2.36h-8.63Z"/><path class="cls-1" d="M250.3,12.27l-2.16-4.35h-2.44v4.35h-2.4V0.19h5.63a5.44,5.44,0,0,1,1.6.23,3.71,3.71,0,0,1,1.33.72,3.39,3.39,0,0,1,.9,1.2A4,4,0,0,1,253.08,4a4,4,0,0,1-.58,2.24,3.54,3.54,0,0,1-1.73,1.32l2.31,4.69H250.3Zm-0.16-9.37a2,2,0,0,0-1.27-.35h-3.17V5.64h3.17a1.46,1.46,0,0,0,1.73-1.56A1.39,1.39,0,0,0,250.14,2.91Z"/><path class="cls-1" d="M269.2,10.19a3.07,3.07,0,0,1-.86,1.21,4.07,4.07,0,0,1-1.48.78,7.25,7.25,0,0,1-2.13.28,6.39,6.39,0,0,1-2.76-.59A4.69,4.69,0,0,1,260,10.27l1.74-1.55a3.73,3.73,0,0,0,1.42,1.06,4.38,4.38,0,0,0,1.67.32,3.16,3.16,0,0,0,1.6-.31,1.08,1.08,0,0,0,.51-1,1.16,1.16,0,0,0-.1-0.51,1.07,1.07,0,0,0-.39-0.41,3.38,3.38,0,0,0-.82-0.36q-0.54-.17-1.38-0.36a12.54,12.54,0,0,1-1.53-.45,4.31,4.31,0,0,1-1.2-.66,2.65,2.65,0,0,1-.78-1,3.6,3.6,0,0,1-.28-1.5,3.21,3.21,0,0,1,.34-1.48,3.31,3.31,0,0,1,.92-1.11,4.25,4.25,0,0,1,1.37-.7,6.2,6.2,0,0,1,4.16.26,6.52,6.52,0,0,1,1.92,1.41l-1.74,1.69a4.41,4.41,0,0,0-1.25-.92,3.4,3.4,0,0,0-1.49-.32,3,3,0,0,0-.81.09,1.65,1.65,0,0,0-.54.25,0.91,0.91,0,0,0-.29.34,0.94,0.94,0,0,0-.09.4,1,1,0,0,0,.11.49,1,1,0,0,0,.39.35,3.66,3.66,0,0,0,.74.29q0.47,0.14,1.19.31t1.44,0.4a4.72,4.72,0,0,1,1.29.65,3,3,0,0,1,1.3,2.67A4.29,4.29,0,0,1,269.2,10.19Z"/><path class="cls-1" d="M276.67,2.55v9.72h-2.4V2.55h-3.47V0.19h9.34V2.55h-3.47Z"/><path class="cls-1" d="M290.88,11a4.59,4.59,0,0,1-3.6,1.44,5.33,5.33,0,0,1-2-.36A4.14,4.14,0,0,1,283.75,11a4.87,4.87,0,0,1-1-1.72A7.15,7.15,0,0,1,282.4,7V0.19h2.4V6.94a3.68,3.68,0,0,0,.66,2.31,2.18,2.18,0,0,0,1.82.85,2.22,2.22,0,0,0,1.83-.83,3.57,3.57,0,0,0,.67-2.3V0.19h2.4V6.94A5.9,5.9,0,0,1,290.88,11Z"/><path class="cls-1" d="M304.47,9a5.3,5.3,0,0,1-1.4,1.88,5.63,5.63,0,0,1-2,1.08,7.61,7.61,0,0,1-2.27.35h-3.61V0.19H299a8.51,8.51,0,0,1,2.39.32,4.77,4.77,0,0,1,1.9,1,4.93,4.93,0,0,1,1.26,1.87,7.58,7.58,0,0,1,.46,2.8A6.53,6.53,0,0,1,304.47,9Zm-2.81-5.49a3.62,3.62,0,0,0-2.77-.92h-1.28V9.91h1.2a4.64,4.64,0,0,0,1.65-.27,3,3,0,0,0,1.15-.75,3.09,3.09,0,0,0,.67-1.16,4.75,4.75,0,0,0,.23-1.5A3.94,3.94,0,0,0,301.66,3.47Z"/><path class="cls-1" d="M307.58,12.27V0.19H310V12.27h-2.4Z"/><path class="cls-1" d="M322.86,8.84a5.65,5.65,0,0,1-1.1,2A4.78,4.78,0,0,1,320.08,12a5.3,5.3,0,0,1-2.16.43,5.39,5.39,0,0,1-2.17-.42,4.65,4.65,0,0,1-1.67-1.23A5.7,5.7,0,0,1,313,8.86a8.15,8.15,0,0,1-.39-2.62A8.23,8.23,0,0,1,313,3.62a5.64,5.64,0,0,1,1.1-2A4.81,4.81,0,0,1,315.78.43a5.69,5.69,0,0,1,4.32,0,4.63,4.63,0,0,1,1.67,1.22,5.74,5.74,0,0,1,1.09,2,8.14,8.14,0,0,1,.39,2.61A8.22,8.22,0,0,1,322.86,8.84ZM320,3.4a2.52,2.52,0,0,0-2.07-1,2.46,2.46,0,0,0-2,1,4.52,4.52,0,0,0-.77,2.83,4.49,4.49,0,0,0,.79,2.85,2.52,2.52,0,0,0,2.07,1,2.46,2.46,0,0,0,2-1,4.52,4.52,0,0,0,.77-2.83A4.49,4.49,0,0,0,320,3.4Z"/><path class="cls-1" d="M339.8,5.83a3.27,3.27,0,0,1-.92,1.23,3.77,3.77,0,0,1-1.39.71,6.5,6.5,0,0,1-1.74.22h-2.66v4.28h-2.4V0.19H336a5.45,5.45,0,0,1,1.61.23,3.71,3.71,0,0,1,1.33.72,3.4,3.4,0,0,1,.9,1.2A4,4,0,0,1,340.13,4,4.49,4.49,0,0,1,339.8,5.83Zm-2.63-2.9a2.07,2.07,0,0,0-1.29-.37h-2.79V5.63h2.82a1.46,1.46,0,0,0,1.73-1.55A1.36,1.36,0,0,0,337.17,2.92Z"/><path class="cls-1" d="M342.43,12.27V0.19h2.4V9.91h6.06v2.36h-8.46Z"/><path class="cls-1" d="M361.17,12.27l-0.95-2.69H355.8l-0.95,2.69h-2.59l4.63-12.08h2.35l4.59,12.08h-2.66Zm-2.55-7.18q-0.19-.53-0.35-1c-0.11-.33-0.19-0.62-0.25-0.85-0.06.23-.14,0.51-0.25,0.85s-0.23.68-.35,1l-0.78,2.19h2.76Z"/><path class="cls-1" d="M369.52,2.55v9.72h-2.4V2.55h-3.47V0.19H373V2.55h-3.47Z"/><path class="cls-1" d="M377.74,2.55V4.82h3.64V7.18h-3.64v5.09h-2.4V0.19H384V2.55h-6.23Z"/><path class="cls-1" d="M395.12,8.84a5.65,5.65,0,0,1-1.1,2A4.78,4.78,0,0,1,392.34,12a5.3,5.3,0,0,1-2.16.43A5.39,5.39,0,0,1,388,12a4.65,4.65,0,0,1-1.67-1.23,5.7,5.7,0,0,1-1.09-1.95,8.15,8.15,0,0,1-.39-2.62,8.23,8.23,0,0,1,.39-2.62,5.64,5.64,0,0,1,1.1-2A4.81,4.81,0,0,1,388,.43a5.69,5.69,0,0,1,4.32,0A4.63,4.63,0,0,1,394,1.65a5.74,5.74,0,0,1,1.09,2,8.14,8.14,0,0,1,.39,2.61A8.22,8.22,0,0,1,395.12,8.84ZM392.23,3.4a2.52,2.52,0,0,0-2.07-1,2.46,2.46,0,0,0-2,1,4.52,4.52,0,0,0-.77,2.83,4.49,4.49,0,0,0,.79,2.85,2.52,2.52,0,0,0,2.07,1,2.46,2.46,0,0,0,2-1A4.52,4.52,0,0,0,393,6.25,4.49,4.49,0,0,0,392.23,3.4Z"/><path class="cls-1" d="M404.95,12.27l-2.16-4.35h-2.44v4.35h-2.4V0.19h5.63a5.44,5.44,0,0,1,1.6.23,3.71,3.71,0,0,1,1.33.72,3.39,3.39,0,0,1,.9,1.2A4,4,0,0,1,407.73,4a4,4,0,0,1-.58,2.24,3.54,3.54,0,0,1-1.73,1.32l2.31,4.69h-2.79Zm-0.16-9.37a2,2,0,0,0-1.27-.35h-3.17V5.64h3.17a1.46,1.46,0,0,0,1.73-1.56A1.39,1.39,0,0,0,404.79,2.91Z"/><path class="cls-1" d="M419.16,12.27V7.83q0-.24,0-0.62c0-.25,0-0.51,0-0.78s0-.51,0-0.74,0-.4,0-0.52l-0.37.92q-0.23.57-.48,1.09l-2.46,5.37-2.44-5.37Q413.2,6.66,413,6.09l-0.37-.92q0,0.17,0,.52c0,0.23,0,.48,0,0.74s0,0.52,0,.78,0,0.46,0,.62v4.44h-2.36V0.19h2.33l2.51,5.47,0.24,0.54,0.23,0.56,0.21,0.52c0.06,0.16.11,0.29,0.15,0.4,0.08-.23.2-0.54,0.35-0.92s0.31-.75.47-1.1l2.44-5.47h2.36V12.27h-2.4Z"/></svg>