<?xml version="1.0" encoding="UTF-8" standalone="no"?>
<svg
   xmlns:dc="http://purl.org/dc/elements/1.1/"
   xmlns:cc="http://creativecommons.org/ns#"
   xmlns:rdf="http://www.w3.org/1999/02/22-rdf-syntax-ns#"
   xmlns:svg="http://www.w3.org/2000/svg"
   xmlns="http://www.w3.org/2000/svg"
   xmlns:sodipodi="http://sodipodi.sourceforge.net/DTD/sodipodi-0.dtd"
   xmlns:inkscape="http://www.inkscape.org/namespaces/inkscape"
   id="Layer_1"
   data-name="Layer 1"
   viewBox="0 0 355.56 12.55"
   version="1.1"
   inkscape:version="0.91+devel_64bit r14690"
   sodipodi:docname="RHDSP.svg"
   width="355.56"
   height="12.55">
  <metadata
     id="metadata3490">
    <rdf:RDF>
      <cc:Work
         rdf:about="">
        <dc:format>image/svg+xml</dc:format>
        <dc:type
           rdf:resource="http://purl.org/dc/dcmitype/StillImage" />
        <dc:title>RHDSP</dc:title>
      </cc:Work>
    </rdf:RDF>
  </metadata>
  <sodipodi:namedview
     pagecolor="#ffffff"
     bordercolor="#666666"
     borderopacity="1"
     objecttolerance="10"
     gridtolerance="10"
     guidetolerance="10"
     inkscape:pageopacity="0"
     inkscape:pageshadow="2"
     inkscape:window-width="1920"
     inkscape:window-height="1001"
     id="namedview3488"
     showgrid="false"
     inkscape:zoom="4.1749692"
     inkscape:cx="303.93914"
     inkscape:cy="6.2750001"
     inkscape:window-x="-9"
     inkscape:window-y="-9"
     inkscape:window-maximized="1"
     inkscape:current-layer="Layer_1" />
  <defs
     id="defs3411">
    <style
       id="style3409">.cls-1{fill:#333;}</style>
  </defs>
  <title
     id="title3413">RHDSP</title>
  <path
     class="cls-1"
     d="m 6.53,12.26 -2,-4 H 3.24 v 4 H 0 V 0.31 H 5.34 A 7.91,7.91 0 0 1 7.24,0.52 4,4 0 0 1 8.72,1.19 3,3 0 0 1 9.67,2.39 4.38,4.38 0 0 1 10,4.21 3.84,3.84 0 0 1 9.42,6.41 3.67,3.67 0 0 1 7.85,7.7 l 2.39,4.56 z M 6.37,3.37 A 1.48,1.48 0 0 0 5.25,3 h -2 v 2.62 h 2 A 1.62,1.62 0 0 0 6.41,5.28 1.33,1.33 0 0 0 6.75,4.28 1.29,1.29 0 0 0 6.37,3.37 Z"
     id="path3425"
     inkscape:connector-curvature="0"
     style="fill:#333333" />
  <path
     class="cls-1"
     d="M 12.22,12.26 V 0.31 h 9.15 V 3.1 H 15.5 V 4.7 H 19 v 2.73 h -3.5 v 2 h 6 v 2.78 h -9.28 z"
     id="path3427"
     inkscape:connector-curvature="0"
     style="fill:#333333" />
  <path
     class="cls-1"
     d="m 33.52,9.06 a 4.28,4.28 0 0 1 -1.23,1.86 4.93,4.93 0 0 1 -2,1 11,11 0 0 1 -2.79,0.32 H 23.6 V 0.31 h 4.18 a 10.37,10.37 0 0 1 2.55,0.29 4.62,4.62 0 0 1 1.93,1 4.49,4.49 0 0 1 1.23,1.82 7.86,7.86 0 0 1 0.44,2.81 8.57,8.57 0 0 1 -0.41,2.83 z m -3.13,-4.2 a 2.3,2.3 0 0 0 -0.47,-1 1.92,1.92 0 0 0 -0.85,-0.55 4,4 0 0 0 -1.3,-0.18 h -0.82 v 6.3 h 0.72 A 4.73,4.73 0 0 0 29,9.27 a 2,2 0 0 0 0.9,-0.53 2.13,2.13 0 0 0 0.5,-1 6.31,6.31 0 0 0 0.15,-1.49 6.07,6.07 0 0 0 -0.16,-1.39 z"
     id="path3429"
     inkscape:connector-curvature="0"
     style="fill:#333333" />
  <path
     class="cls-1"
     d="M 48,12.26 V 7.55 h -3.75 v 4.71 H 40.88 V 0.31 h 3.38 V 4.67 H 48 V 0.31 h 3.38 v 11.95 z"
     id="path3431"
     inkscape:connector-curvature="0"
     style="fill:#333333" />
  <path
     class="cls-1"
     d="m 61.49,12.26 -0.65,-2.1 h -3.58 l -0.65,2.1 H 53.06 L 57.4,0.31 h 3.34 l 4.34,11.95 z M 59.82,6.75 c -0.1,-0.39 -0.19,-0.72 -0.27,-1 L 59.33,5 C 59.27,4.77 59.21,4.57 59.17,4.38 59.13,4.19 59.09,4 59.05,3.76 c 0,0.21 -0.07,0.4 -0.12,0.6 -0.05,0.2 -0.1,0.4 -0.16,0.63 l -0.21,0.77 -0.27,1 -0.22,0.79 h 2 z"
     id="path3433"
     inkscape:connector-curvature="0"
     style="fill:#333333" />
  <path
     class="cls-1"
     d="m 71.32,3.2 v 9.06 H 68 V 3.2 H 64.67 V 0.31 h 10 V 3.2 Z"
     id="path3435"
     inkscape:connector-curvature="0"
     style="fill:#333333" />
  <path
     class="cls-1"
     d="M 78.56,2 A 1.13,1.13 0 0 1 78.31,2.38 1.14,1.14 0 0 1 77.93,2.63 1.22,1.22 0 0 1 77.46,2.72 1.19,1.19 0 0 1 77,2.61 1.15,1.15 0 0 1 76.62,2.36 1.13,1.13 0 0 1 76.35,2 1.21,1.21 0 0 1 76.26,1.53 1.2,1.2 0 0 1 76.35,1 1.15,1.15 0 0 1 76.6,0.65 1.16,1.16 0 0 1 77,0.4 1.21,1.21 0 0 1 77.46,0.31 1.23,1.23 0 0 1 77.93,0.4 1.18,1.18 0 0 1 78.56,1.03 1.23,1.23 0 0 1 78.65,1.5 1.23,1.23 0 0 1 78.56,2 Z M 78.38,1.13 a 1,1 0 0 0 -0.53,-0.55 1.1,1.1 0 0 0 -0.79,0 1,1 0 0 0 -0.32,0.21 1.06,1.06 0 0 0 -0.21,0.32 1,1 0 0 0 -0.08,0.4 1,1 0 0 0 0.08,0.4 1.05,1.05 0 0 0 0.21,0.32 1,1 0 0 0 0.32,0.21 1.1,1.1 0 0 0 0.79,0 1,1 0 0 0 0.32,-0.21 1,1 0 0 0 0.21,-0.32 1.07,1.07 0 0 0 0,-0.8 z M 77.92,1.5 a 0.37,0.37 0 0 1 -0.2,0.13 L 78,2.14 H 77.73 L 77.48,1.63 H 77.22 V 2.14 H 77 V 0.83 h 0.57 0.16 A 0.35,0.35 0 0 1 77.86,0.9 0.33,0.33 0 0 1 78,1 a 0.44,0.44 0 0 1 0,0.18 0.38,0.38 0 0 1 -0.08,0.3 z m -0.2,-0.38 a 0.23,0.23 0 0 0 -0.15,0 h -0.35 v 0.3 h 0.35 a 0.25,0.25 0 0 0 0.15,0 0.17,0.17 0 0 0 0.06,-0.14 0.17,0.17 0 0 0 -0.06,-0.19 z"
     id="path3437"
     inkscape:connector-curvature="0"
     style="fill:#333333" />
  <path
     class="cls-1"
     d="m 94.17,9 a 5.3,5.3 0 0 1 -1.4,1.88 5.63,5.63 0 0 1 -2,1.08 7.61,7.61 0 0 1 -2.27,0.35 H 84.89 V 0.19 h 3.78 a 8.52,8.52 0 0 1 2.39,0.32 4.78,4.78 0 0 1 1.9,1 4.93,4.93 0 0 1 1.26,1.87 7.6,7.6 0 0 1 0.46,2.8 A 6.53,6.53 0 0 1 94.17,9 Z M 91.36,3.51 A 3.62,3.62 0 0 0 88.59,2.59 h -1.28 v 7.32 h 1.2 A 4.65,4.65 0 0 0 90.16,9.64 3,3 0 0 0 91.31,8.89 3.1,3.1 0 0 0 92,7.73 4.76,4.76 0 0 0 92.23,6.23 3.94,3.94 0 0 0 91.36,3.47 Z"
     id="path3441"
     inkscape:connector-curvature="0"
     style="fill:#333333" />
  <path
     class="cls-1"
     d="M 97.11,12.27 V 0.19 h 8.37 v 2.36 h -6 V 4.63 H 103 V 7 h -3.47 v 2.91 h 6.23 v 2.36 h -8.63 z"
     id="path3443"
     inkscape:connector-curvature="0"
     style="fill:#333333" />
  <path
     class="cls-1"
     d="m 113.94,12.27 h -2.35 L 107.3,0.19 h 2.7 l 2.28,7 0.17,0.54 0.16,0.54 q 0.08,0.27 0.14,0.51 l 0.09,0.4 0.23,-0.9 q 0.15,-0.55 0.32,-1.09 l 2.23,-7 h 2.64 z"
     id="path3445"
     inkscape:connector-curvature="0"
     style="fill:#333333" />
  <path
     class="cls-1"
     d="M 120.48,12.27 V 0.19 h 8.37 v 2.36 h -6 v 2.08 h 3.47 V 7 h -3.47 v 2.91 h 6.23 v 2.36 h -8.63 z"
     id="path3447"
     inkscape:connector-curvature="0"
     style="fill:#333333" />
  <path
     class="cls-1"
     d="M 131.7,12.27 V 0.19 h 2.4 v 9.72 h 6.06 v 2.36 z"
     id="path3449"
     inkscape:connector-curvature="0"
     style="fill:#333333" />
  <path
     class="cls-1"
     d="m 151.52,8.84 a 5.67,5.67 0 0 1 -1.1,2 4.79,4.79 0 0 1 -1.69,1.16 5.31,5.31 0 0 1 -2.16,0.43 5.4,5.4 0 0 1 -2.17,-0.42 4.65,4.65 0 0 1 -1.67,-1.23 5.7,5.7 0 0 1 -1.09,-1.95 8.15,8.15 0 0 1 -0.39,-2.62 8.23,8.23 0 0 1 0.39,-2.62 5.64,5.64 0 0 1 1.1,-2 4.81,4.81 0 0 1 1.7,-1.16 5.69,5.69 0 0 1 4.32,0 4.62,4.62 0 0 1 1.67,1.22 5.73,5.73 0 0 1 1.09,2 8.11,8.11 0 0 1 0.39,2.61 8.19,8.19 0 0 1 -0.39,2.58 z M 148.63,3.4 a 2.52,2.52 0 0 0 -2.07,-1 2.46,2.46 0 0 0 -2,1 4.52,4.52 0 0 0 -0.77,2.83 4.49,4.49 0 0 0 0.79,2.85 2.52,2.52 0 0 0 2.07,1 2.46,2.46 0 0 0 2,-1 4.52,4.52 0 0 0 0.77,-2.83 4.49,4.49 0 0 0 -0.79,-2.85 z"
     id="path3451"
     inkscape:connector-curvature="0"
     style="fill:#333333" />
  <path
     class="cls-1"
     d="m 163.45,5.83 a 3.27,3.27 0 0 1 -0.92,1.23 3.77,3.77 0 0 1 -1.39,0.71 6.5,6.5 0 0 1 -1.74,0.22 h -2.66 v 4.28 h -2.4 V 0.19 h 5.28 a 5.45,5.45 0 0 1 1.61,0.23 3.71,3.71 0 0 1 1.33,0.72 3.4,3.4 0 0 1 0.9,1.2 4,4 0 0 1 0.32,1.66 4.49,4.49 0 0 1 -0.33,1.83 z m -2.63,-2.9 a 2.07,2.07 0 0 0 -1.29,-0.37 h -2.79 v 3.07 h 2.82 a 1.46,1.46 0 0 0 1.73,-1.55 1.36,1.36 0 0 0 -0.47,-1.16 z"
     id="path3453"
     inkscape:connector-curvature="0"
     style="fill:#333333" />
  <path
     class="cls-1"
     d="M 166.08,12.27 V 0.19 h 8.37 v 2.36 h -6 v 2.08 h 3.47 V 7 h -3.47 v 2.91 h 6.23 v 2.36 h -8.63 z"
     id="path3455"
     inkscape:connector-curvature="0"
     style="fill:#333333" />
  <path
     class="cls-1"
     d="m 184.3,12.27 -2.16,-4.35 h -2.44 v 4.35 h -2.4 V 0.19 h 5.63 a 5.44,5.44 0 0 1 1.6,0.23 3.71,3.71 0 0 1 1.33,0.72 3.39,3.39 0 0 1 0.9,1.2 4,4 0 0 1 0.32,1.66 4,4 0 0 1 -0.58,2.24 3.54,3.54 0 0 1 -1.73,1.32 l 2.31,4.69 H 184.3 Z M 184.14,2.9 a 2,2 0 0 0 -1.27,-0.35 h -3.17 v 3.09 h 3.17 a 1.46,1.46 0 0 0 1.73,-1.56 1.39,1.39 0 0 0 -0.46,-1.17 z"
     id="path3457"
     inkscape:connector-curvature="0"
     style="fill:#333333" />
  <path
     class="cls-1"
     d="m 203.2,10.19 a 3.07,3.07 0 0 1 -0.86,1.21 4.07,4.07 0 0 1 -1.48,0.78 7.25,7.25 0 0 1 -2.13,0.28 6.39,6.39 0 0 1 -2.76,-0.59 4.69,4.69 0 0 1 -1.97,-1.6 l 1.74,-1.55 a 3.73,3.73 0 0 0 1.42,1.06 4.38,4.38 0 0 0 1.67,0.32 3.16,3.16 0 0 0 1.6,-0.31 1.08,1.08 0 0 0 0.51,-1 1.16,1.16 0 0 0 -0.1,-0.51 1.07,1.07 0 0 0 -0.39,-0.41 3.38,3.38 0 0 0 -0.82,-0.36 q -0.54,-0.17 -1.38,-0.36 a 12.54,12.54 0 0 1 -1.53,-0.45 4.31,4.31 0 0 1 -1.2,-0.66 2.65,2.65 0 0 1 -0.78,-1 3.6,3.6 0 0 1 -0.28,-1.5 3.21,3.21 0 0 1 0.34,-1.48 3.31,3.31 0 0 1 0.92,-1.11 4.25,4.25 0 0 1 1.37,-0.7 6.2,6.2 0 0 1 4.16,0.26 6.52,6.52 0 0 1 1.92,1.41 l -1.74,1.69 a 4.41,4.41 0 0 0 -1.25,-0.92 3.4,3.4 0 0 0 -1.49,-0.32 3,3 0 0 0 -0.81,0.09 1.65,1.65 0 0 0 -0.54,0.25 0.91,0.91 0 0 0 -0.29,0.34 0.94,0.94 0 0 0 -0.09,0.4 1,1 0 0 0 0.11,0.49 1,1 0 0 0 0.39,0.35 3.66,3.66 0 0 0 0.74,0.29 q 0.47,0.14 1.19,0.31 0.72,0.17 1.44,0.4 a 4.72,4.72 0 0 1 1.29,0.65 3,3 0 0 1 1.3,2.67 4.29,4.29 0 0 1 -0.22,1.58 z"
     id="path3459"
     inkscape:connector-curvature="0"
     style="fill:#333333" />
  <path
     class="cls-1"
     d="m 210.67,2.55 v 9.72 h -2.4 V 2.55 H 204.8 V 0.19 h 9.34 v 2.36 z"
     id="path3461"
     inkscape:connector-curvature="0"
     style="fill:#333333" />
  <path
     class="cls-1"
     d="m 224.88,11 a 4.59,4.59 0 0 1 -3.6,1.44 5.33,5.33 0 0 1 -2,-0.36 4.14,4.14 0 0 1 -1.53,-1.08 4.87,4.87 0 0 1 -1,-1.72 A 7.15,7.15 0 0 1 216.4,7 V 0.19 h 2.4 v 6.75 a 3.68,3.68 0 0 0 0.66,2.31 2.18,2.18 0 0 0 1.82,0.85 2.22,2.22 0 0 0 1.83,-0.83 3.57,3.57 0 0 0 0.67,-2.3 V 0.19 h 2.4 v 6.75 a 5.9,5.9 0 0 1 -1.3,4.06 z"
     id="path3463"
     inkscape:connector-curvature="0"
     style="fill:#333333" />
  <path
     class="cls-1"
     d="m 238.47,9 a 5.3,5.3 0 0 1 -1.4,1.88 5.63,5.63 0 0 1 -2,1.08 7.61,7.61 0 0 1 -2.27,0.35 h -3.61 V 0.19 H 233 a 8.51,8.51 0 0 1 2.39,0.32 4.77,4.77 0 0 1 1.9,1 4.93,4.93 0 0 1 1.26,1.87 7.58,7.58 0 0 1 0.46,2.8 6.53,6.53 0 0 1 -0.54,2.82 z m -2.81,-5.49 a 3.62,3.62 0 0 0 -2.77,-0.92 h -1.28 v 7.32 h 1.2 a 4.64,4.64 0 0 0 1.65,-0.27 3,3 0 0 0 1.15,-0.75 3.09,3.09 0 0 0 0.67,-1.16 4.75,4.75 0 0 0 0.23,-1.5 3.94,3.94 0 0 0 -0.85,-2.76 z"
     id="path3465"
     inkscape:connector-curvature="0"
     style="fill:#333333" />
  <path
     class="cls-1"
     d="M 241.58,12.27 V 0.19 H 244 v 12.08 h -2.4 z"
     id="path3467"
     inkscape:connector-curvature="0"
     style="fill:#333333" />
  <path
     class="cls-1"
     d="m 256.86,8.84 a 5.65,5.65 0 0 1 -1.1,2 4.78,4.78 0 0 1 -1.68,1.16 5.3,5.3 0 0 1 -2.16,0.43 5.39,5.39 0 0 1 -2.17,-0.42 4.65,4.65 0 0 1 -1.67,-1.23 A 5.7,5.7 0 0 1 247,8.86 8.15,8.15 0 0 1 246.61,6.24 8.23,8.23 0 0 1 247,3.62 a 5.64,5.64 0 0 1 1.1,-2 4.81,4.81 0 0 1 1.68,-1.19 5.69,5.69 0 0 1 4.32,0 4.63,4.63 0 0 1 1.67,1.22 5.74,5.74 0 0 1 1.09,2 8.14,8.14 0 0 1 0.39,2.61 8.22,8.22 0 0 1 -0.39,2.58 z M 254,3.4 a 2.52,2.52 0 0 0 -2.07,-1 2.46,2.46 0 0 0 -2,1 4.52,4.52 0 0 0 -0.77,2.83 4.49,4.49 0 0 0 0.79,2.85 2.52,2.52 0 0 0 2.07,1 2.46,2.46 0 0 0 2,-1 4.52,4.52 0 0 0 0.77,-2.83 A 4.49,4.49 0 0 0 254,3.4 Z"
     id="path3469"
     inkscape:connector-curvature="0"
     style="fill:#333333" />
  <path
     class="cls-1"
     d="m 273.8,5.83 a 3.27,3.27 0 0 1 -0.92,1.23 3.77,3.77 0 0 1 -1.39,0.71 6.5,6.5 0 0 1 -1.74,0.22 h -2.66 v 4.28 h -2.4 V 0.19 H 270 a 5.45,5.45 0 0 1 1.61,0.23 3.71,3.71 0 0 1 1.33,0.72 3.4,3.4 0 0 1 0.9,1.2 4,4 0 0 1 0.29,1.66 4.49,4.49 0 0 1 -0.33,1.83 z m -2.63,-2.9 a 2.07,2.07 0 0 0 -1.29,-0.37 h -2.79 v 3.07 h 2.82 a 1.46,1.46 0 0 0 1.73,-1.55 1.36,1.36 0 0 0 -0.47,-1.16 z"
     id="path3471"
     inkscape:connector-curvature="0"
     style="fill:#333333" />
  <path
     class="cls-1"
     d="M 276.43,12.27 V 0.19 h 2.4 v 9.72 h 6.06 v 2.36 z"
     id="path3473"
     inkscape:connector-curvature="0"
     style="fill:#333333" />
  <path
     class="cls-1"
     d="m 295.17,12.27 -0.95,-2.69 h -4.42 l -0.95,2.69 h -2.59 l 4.63,-12.08 h 2.35 l 4.59,12.08 z m -2.55,-7.18 q -0.19,-0.53 -0.35,-1 c -0.11,-0.33 -0.19,-0.62 -0.25,-0.85 -0.06,0.23 -0.14,0.51 -0.25,0.85 -0.11,0.34 -0.23,0.68 -0.35,1 l -0.78,2.19 h 2.76 z"
     id="path3475"
     inkscape:connector-curvature="0"
     style="fill:#333333" />
  <path
     class="cls-1"
     d="m 303.52,2.55 v 9.72 h -2.4 V 2.55 h -3.47 V 0.19 H 307 v 2.36 h -3.47 z"
     id="path3477"
     inkscape:connector-curvature="0"
     style="fill:#333333" />
  <path
     class="cls-1"
     d="m 311.74,2.55 v 2.27 h 3.64 v 2.36 h -3.64 v 5.09 h -2.4 V 0.19 H 318 v 2.36 h -6.23 z"
     id="path3479"
     inkscape:connector-curvature="0"
     style="fill:#333333" />
  <path
     class="cls-1"
     d="m 329.12,8.84 a 5.65,5.65 0 0 1 -1.1,2 4.78,4.78 0 0 1 -1.68,1.16 5.3,5.3 0 0 1 -2.16,0.43 A 5.39,5.39 0 0 1 322,12 a 4.65,4.65 0 0 1 -1.67,-1.23 5.7,5.7 0 0 1 -1.09,-1.95 8.15,8.15 0 0 1 -0.39,-2.62 8.23,8.23 0 0 1 0.39,-2.62 5.64,5.64 0 0 1 1.1,-2 4.81,4.81 0 0 1 1.66,-1.15 5.69,5.69 0 0 1 4.32,0 4.63,4.63 0 0 1 1.68,1.22 5.74,5.74 0 0 1 1.09,2 8.14,8.14 0 0 1 0.39,2.61 8.22,8.22 0 0 1 -0.36,2.58 z M 326.23,3.4 a 2.52,2.52 0 0 0 -2.07,-1 2.46,2.46 0 0 0 -2,1 4.52,4.52 0 0 0 -0.77,2.83 4.49,4.49 0 0 0 0.79,2.85 2.52,2.52 0 0 0 2.07,1 2.46,2.46 0 0 0 2,-1 A 4.52,4.52 0 0 0 327,6.25 4.49,4.49 0 0 0 326.23,3.4 Z"
     id="path3481"
     inkscape:connector-curvature="0"
     style="fill:#333333" />
  <path
     class="cls-1"
     d="m 338.95,12.27 -2.16,-4.35 h -2.44 v 4.35 h -2.4 V 0.19 h 5.63 a 5.44,5.44 0 0 1 1.6,0.23 3.71,3.71 0 0 1 1.33,0.72 3.39,3.39 0 0 1 0.9,1.2 4,4 0 0 1 0.32,1.66 4,4 0 0 1 -0.58,2.24 3.54,3.54 0 0 1 -1.73,1.32 l 2.31,4.69 h -2.79 z M 338.79,2.9 a 2,2 0 0 0 -1.27,-0.35 h -3.17 v 3.09 h 3.17 a 1.46,1.46 0 0 0 1.73,-1.56 1.39,1.39 0 0 0 -0.46,-1.17 z"
     id="path3483"
     inkscape:connector-curvature="0"
     style="fill:#333333" />
  <path
     class="cls-1"
     d="M 353.16,12.27 V 7.83 q 0,-0.24 0,-0.62 c 0,-0.25 0,-0.51 0,-0.78 0,-0.27 0,-0.51 0,-0.74 0,-0.23 0,-0.4 0,-0.52 l -0.37,0.92 q -0.23,0.57 -0.48,1.09 l -2.46,5.37 -2.44,-5.37 Q 347.2,6.66 347,6.09 l -0.37,-0.92 q 0,0.17 0,0.52 c 0,0.23 0,0.48 0,0.74 0,0.26 0,0.52 0,0.78 0,0.26 0,0.46 0,0.62 v 4.44 h -2.36 V 0.19 h 2.33 l 2.51,5.47 0.24,0.54 0.23,0.56 0.21,0.52 c 0.06,0.16 0.11,0.29 0.15,0.4 0.08,-0.23 0.2,-0.54 0.35,-0.92 0.15,-0.38 0.31,-0.75 0.47,-1.1 l 2.44,-5.47 h 2.36 v 12.08 z"
     id="path3485"
     inkscape:connector-curvature="0"
     style="fill:#333333" />
</svg>
